<?xml version="1.0" encoding="utf-8"?>
<!-- Generator: Adobe Illustrator 25.1.0, SVG Export Plug-In . SVG Version: 6.00 Build 0)  -->
<svg version="1.1" id="Layer_1" xmlns="http://www.w3.org/2000/svg" xmlns:xlink="http://www.w3.org/1999/xlink" x="0px" y="0px"
	 viewBox="0 0 1600 209.6" style="enable-background:new 0 0 1600 209.6;" xml:space="preserve">
<style type="text/css">
	.st0{fill:#10284A;}
	.st1{fill:#C6901B;}
	.st2{fill:#939598;}
	.st3{fill:none;stroke:#939598;stroke-miterlimit:10;}
</style>
<g>
	<path class="st0" d="M128.5,105.6c0,31.8-4.6,55.9-52.9,55.9c-48,0-55.4-23.2-55.4-55.9V28.4c0-17.4-7.4-19-20.2-19V4.8h61v4.6
		c-12.5,0-20.2,1.6-20.2,19v77.2c0,23.7,5.6,46.8,35.7,46.8c33.4,0,38.7-19.2,38.7-46.8V28.4c0-17.4-7.6-19-20.2-19V4.8h53.6v4.6
		c-12.8,0-20.2,1.6-20.2,19L128.5,105.6L128.5,105.6z"/>
	<path class="st0" d="M256.8,155.2c-11.4,4.2-24.4,6.3-41.5,6.3c-46.4,0-68.7-35.3-68.7-84.7c0-42.9,13.9-74.5,63.5-74.5
		c18.6,0,34.3,3.7,44.6,6.5l2.1,36.4H251c-3-13-12.3-33.9-41.1-33.9c-37.3,0-40.4,39.7-40.4,63.6c0,29.9,6.5,76.1,57.3,76.1
		c15.5,0,23.9-3.5,29.9-5.8L256.8,155.2L256.8,155.2z"/>
	<path class="st0" d="M381.4,38.1c-2.1-12.3-11.4-26.7-36.2-26.7c-15.6,0-29.2,10-29.2,25.3c0,20.6,27.6,27.4,47.8,39.2
		c18.3,10.7,30.6,20.2,30.6,42.2c0,29.5-25.5,43.4-57.3,43.4c-15.8,0-34.1-3.5-39.9-4.4l-1.6-32.7h5.8c1.8,12.3,12.8,26.7,37.6,26.7
		c20.4,0,33.6-13.2,33.6-29.2c0-25-38.5-32.7-60.1-49.2c-10.2-7.9-15.1-16.2-15.1-31.1c0-27.8,23-39.2,52.2-39.2
		c15.6,0,25.5,1.9,36,3.9l1.6,31.8L381.4,38.1L381.4,38.1z"/>
	<path class="st0" d="M489.2,159.3c-2.5,0.6-7.6,1.9-15,1.9c-12,0-15.5-6.2-15.5-15.1h-0.4c-6.4,9.3-15.2,15.1-29.3,15.1
		c-14.2,0-24.7-9.9-24.7-23.3c0-29.9,38.8-29.9,54.5-31.4v-7.8c0-14.5-0.2-29.7-17.5-29.7c-12.8,0-14.4,5.4-14.4,12
		c0,8.5-6.2,10.7-9.7,10.7c-5.6,0-9.9-3.7-9.9-9.3c0-13.4,20-20.2,34.3-20.2c28.3,0,33.4,13.6,33.4,32.8v51.2c0,7.2,2.5,9.7,8.9,9.7
		c1.8,0,3.7-0.4,5.6-0.8v4.2H489.2z M458.6,113.3c-9.7,0.2-36.1,2.1-36.1,21.3c0,10.7,7,17.9,14.1,17.9c13.4,0,22.1-13,22.1-27
		v-12.2H458.6z"/>
	<path class="st0" d="M493.7,155.6c8.7,0,15.7-1.8,15.7-15.3V84c0-12.4-9.7-13-15.7-13.4v-3.5l31.8-4.9v27.2h0.4
		c2.9-7.6,12.1-27.2,32.6-27.2c21.9,0,23.9,12,23.9,31.2v47.1c0,13.4,7,15.3,15.7,15.3v3.5h-47.5v-3.7c8.7,0,15.7-1.8,15.7-15.3
		V97.8c0-17.7-0.2-25.8-13.8-25.8c-12.2,0-27,23.3-27,42.9v25.4c0,13.4,7,15.3,15.7,15.3v3.5h-47.5L493.7,155.6L493.7,155.6z"/>
	<path class="st0" d="M621.7,154.5c12.5,0,20.2-1.6,20.2-19V28.3c0-17.4-7.7-19-20.2-19V4.7H676c38.5,0,79.3,8.3,79.3,77.5
		c0,68.9-42.9,77-79.3,77h-54.3V154.5z M662.5,130.6c0,16.9,1.9,19.5,13.5,19.5c39.9,0,56.4-21.3,56.4-68
		c0-42.7-12.3-68.4-56.4-68.4c-11.6,0-13.5,1.4-13.5,19.5V130.6z"/>
	<path class="st0" d="M763.8,155.6c8.7,0,15.7-1.8,15.7-15.3V84c0-12.4-9.5-13-15.7-13.4v-3.5l31.8-4.9v78.2
		c0,13.4,7,15.3,15.7,15.3v3.5h-47.5V155.6z M775.1,31.4c0-6.6,5.2-11.8,11.7-11.8c6.6,0,11.8,5.2,11.8,11.8s-5.2,11.8-11.8,11.8
		C780.3,43.2,775.1,38,775.1,31.4z"/>
	<path class="st0" d="M885.9,157.5c-5,1.9-12,3.7-24.6,3.7c-32,0-49.9-17.5-49.9-52.2c0-30.1,12.2-46.8,41.9-46.8
		c18.6,0,35.3,10.3,35.3,34.2v4.5h-60c0,17.3,8.4,52.6,42.9,52.6c4.7,0,10.3-0.6,14.4-2.7L885.9,157.5L885.9,157.5z M870.2,94.1
		c0-10.9-3.7-25.2-19.6-25.2c-15.7,0-22.1,17.5-22.1,25.2H870.2z"/>
	<path class="st0" d="M955.7,142.6c9.9,0,32.8,0.4,32.8,23.3c0,23.5-23.1,36.7-50.6,36.7c-20.2,0-41.3-7.6-41.3-26.2
		c0-12.8,9.5-18.4,16.1-21.7c-3.5-2.1-8.9-6-8.9-14.6c0-7.6,6.6-15.5,8.9-18c-4.8-3.9-12-10.1-12-27.6c0-26.6,19.4-32.4,39-32.4
		c9.5,0,14.7,1.6,21.3,5.1c3.3-7.8,8.2-22.1,20.8-22.1c5.8,0,9.9,3.7,9.9,9.9c0,5.6-3.5,9.3-9.7,9.3c-5.4,0-6.6-2.9-9.3-2.9
		c-4.5,0-6.4,6-7.4,9.3c2.5,2.7,9.3,10.3,9.3,24.8c0,20.8-13,32.6-37.7,32.6c-8.3,0-14.3-1-18.8-3.1c-1.3,1.7-3.7,4.7-3.7,9.3
		c0,8.3,10.3,8.3,16.9,8.3L955.7,142.6L955.7,142.6z M920,157.3c-4.1,3.1-9.9,6.6-9.9,15.9c0,12.2,10.9,22.7,28.9,22.7
		c18.8,0,36.1-9.7,36.1-24.6c0-10.5-8.7-14-19-14H920z M937.9,121.4c17.3,0,19.6-13.6,19.6-24.6c0-15.5-5.4-27.8-20.2-27.8
		c-16.3,0-19.4,12-19.4,23.9C917.9,108.6,923.1,121.4,937.9,121.4z"/>
	<path class="st0" d="M988.7,111.7c0-31,16.7-49.5,43.1-49.5s43.1,18.6,43.1,49.5s-16.7,49.5-43.1,49.5S988.7,142.6,988.7,111.7z
		 M1031.8,154.4c20.6,0,24.8-25.6,24.8-42.7s-4.1-42.7-24.8-42.7c-20.6,0-24.7,25.6-24.7,42.7C1007,128.8,1011.2,154.4,1031.8,154.4
		z"/>
</g>
<g id="line_9_">
	<path class="st1" d="M886.1,194.7H0v5.2h891.1C889.2,198.4,887.5,196.6,886.1,194.7z"/>
	<path class="st1" d="M1073.3,194.7h-81.5c-1.8,1.9-3.9,3.6-6.1,5.2h87.6V194.7z"/>
</g>
<g>
	<path class="st2" d="M1279.9,86.1v2.6h-13.5V64.4h3.1v21.7H1279.9z"/>
	<path class="st2" d="M1296.6,80.5c0,5-2.2,8.6-7.5,8.6c-5,0-7.3-3.6-7.3-8.6c0-4.9,2.2-8.6,7.4-8.6
		C1294.3,72,1296.6,75.6,1296.6,80.5z M1293.6,80.5c0-3.7-1.3-5.9-4.5-5.9c-3.1,0-4.4,2.3-4.4,5.9c0,3.7,1.3,6,4.4,6
		C1292.4,86.5,1293.6,84.2,1293.6,80.5z"/>
	<path class="st2" d="M1314.2,72.3V90c0,3.4-2.6,6.1-6.9,6.1s-6.4-2.3-6.4-5h2.6c0,1.2,1.4,2.6,3.9,2.6c2.6,0,4-1.5,4-3.6V87
		c-1,1.2-2.6,2.1-4.5,2.1c-4.8,0-7-3.3-7-8.6s2.3-8.6,7-8.6c2.3,0,3.7,0.9,4.6,1.9v-1.6h2.7V72.3z M1307.3,86.5c1.8,0,3.2-0.9,4-2
		v-7.9c-0.6-0.9-1.9-2-4-2c-3.5,0-4.6,2.4-4.6,5.9C1302.7,83.8,1303.7,86.5,1307.3,86.5z"/>
	<path class="st2" d="M1333,80.5c0,5-2.2,8.6-7.5,8.6c-5,0-7.3-3.6-7.3-8.6c0-4.9,2.2-8.6,7.4-8.6C1330.8,72,1333,75.6,1333,80.5z
		 M1330,80.5c0-3.7-1.3-5.9-4.5-5.9c-3.1,0-4.4,2.3-4.4,5.9c0,3.7,1.3,6,4.4,6C1328.8,86.5,1330,84.2,1330,80.5z"/>
	<path class="st2" d="M1341.1,84c0,1.5,0.6,2.4,2.2,2.4c0.7,0,1.5-0.2,2.2-0.5l0.3,2.5c-0.8,0.4-2.1,0.7-3.3,0.7
		c-3,0-4.2-1.9-4.2-4.8v-9.5h-3.1v-2.1l3.1-0.4v-4.1l2.8-0.5v4.6h4.4v2.5h-4.4V84z"/>
	<path class="st2" d="M1355.5,84.3l4.6-12h3.2l-10,24.2h-3l3.7-8.8l-6.9-15.4h3.2L1355.5,84.3z"/>
	<path class="st2" d="M1369.2,96.5h-2.9V72.3h2.8v1.6c0.9-1.1,2.7-1.9,4.9-1.9c4.7,0,6.9,3.3,6.9,8.6c0,5.2-2.3,8.5-7,8.5
		c-2.3,0-3.9-0.9-4.7-1.9L1369.2,96.5L1369.2,96.5z M1373.3,74.6c-2.1,0-3.5,0.9-4.1,2v7.8c0.6,0.9,1.9,1.9,4.1,1.9
		c3.6,0,4.6-2.4,4.6-5.8C1377.9,77.2,1376.8,74.6,1373.3,74.6z"/>
	<path class="st2" d="M1396.1,84.9l1.4,1.9c-1.1,1.2-3.4,2.3-5.9,2.3c-5.4,0-7.5-3.6-7.5-8.6c0-4.7,2.3-8.5,7.2-8.5
		c4.6,0,6.6,3.4,6.6,6.9c0,0.8-0.1,1.9-0.2,2.6H1387c0.1,3.1,1.4,5.2,4.6,5.2C1393,86.6,1394.9,86.1,1396.1,84.9z M1395.1,79.3
		c0-0.2,0.1-0.5,0.1-0.7c0-2.5-1.4-4.1-3.9-4.1c-3,0-4.1,2.1-4.3,4.9L1395.1,79.3L1395.1,79.3z"/>
</g>
<g>
	<path class="st2" d="M1266.4,179.9h8.4c5.6,0,8.4,2.6,8.4,6.8c0,3.6-2.3,6-6.3,6.6l6.9,10.9h-3.6l-6.6-10.7h-4.2v10.7h-3.1
		L1266.4,179.9L1266.4,179.9z M1274.6,182.6h-5.1v8.4h5.1c4,0,5.4-1.6,5.4-4.2C1280,184.1,1278.6,182.6,1274.6,182.6z"/>
	<path class="st2" d="M1301,204.3h-2.8v-2c-1,1.4-3,2.3-5.4,2.3c-4.1,0-5.8-2.2-5.8-6.3v-10.5h2.9V198c0,2.6,0.9,3.9,3.7,3.9
		c1.9,0,3.6-0.8,4.5-1.9v-12.2h2.9L1301,204.3L1301,204.3z"/>
	<path class="st2" d="M1308.6,179.4v20.2c0,1.4,0.4,2.1,1.7,2.1h0.9v2.7h-1.7c-2.8,0-3.7-1.7-3.7-4.4v-20.5h2.8V179.4z"/>
	<path class="st2" d="M1325.4,200.4l1.4,1.9c-1.1,1.2-3.4,2.3-5.9,2.3c-5.4,0-7.5-3.6-7.5-8.6c0-4.7,2.3-8.5,7.2-8.5
		c4.6,0,6.6,3.4,6.6,6.9c0,0.8-0.1,1.9-0.2,2.6h-10.7c0.1,3.1,1.4,5.2,4.6,5.2C1322.3,202.1,1324.2,201.6,1325.4,200.4z
		 M1324.4,194.8c0-0.2,0.1-0.5,0.1-0.7c0-2.5-1.4-4.1-3.9-4.1c-3,0-4.1,2.1-4.3,4.9L1324.4,194.8L1324.4,194.8z"/>
	<path class="st2" d="M1352.9,201.6v2.6h-13.5v-24.3h3.1v21.7H1352.9z"/>
	<path class="st2" d="M1355.4,181.9c0-1.4,0.9-2,2-2c1,0,2,0.6,2,2s-1,1.9-2,1.9C1356.3,183.9,1355.4,183.3,1355.4,181.9z
		 M1356,187.9h2.9v16.4h-2.9V187.9z"/>
	<path class="st2" d="M1363.8,187.9h2.8v2c1-1.4,3-2.3,5.4-2.3c4.1,0,5.8,2.2,5.8,6.3v10.5h-2.9v-10.2c0-2.6-0.9-3.9-3.7-3.9
		c-1.9,0-3.6,0.8-4.5,1.9v12.2h-2.9L1363.8,187.9L1363.8,187.9z"/>
	<path class="st2" d="M1393.6,200.4l1.4,1.9c-1.1,1.2-3.4,2.3-5.9,2.3c-5.4,0-7.5-3.6-7.5-8.6c0-4.7,2.3-8.5,7.2-8.5
		c4.6,0,6.6,3.4,6.6,6.9c0,0.8-0.1,1.9-0.2,2.6h-10.7c0.1,3.1,1.4,5.2,4.6,5.2C1390.6,202.1,1392.4,201.6,1393.6,200.4z
		 M1392.6,194.8c0-0.2,0.1-0.5,0.1-0.7c0-2.5-1.4-4.1-3.9-4.1c-3,0-4.1,2.1-4.3,4.9L1392.6,194.8L1392.6,194.8z"/>
</g>
<polyline class="st3" points="1115.3,2.3 1150,2.3 1150,158.9 1115.3,158.9 "/>
<line class="st3" x1="1115.3" y1="197.3" x2="1245.3" y2="197.3"/>
<line class="st3" x1="1150" y1="80.6" x2="1245.3" y2="80.6"/>
</svg>
